<?xml version="1.0" encoding="iso-8859-1"?>
<!-- Uploaded to: SVG Repo, www.svgrepo.com, Generator: SVG Repo Mixer Tools -->
<svg fill="#000000" version="1.1" id="Layer_1" xmlns="http://www.w3.org/2000/svg" xmlns:xlink="http://www.w3.org/1999/xlink" 
	 viewBox="0 0 512 512" xml:space="preserve">
<g>
	<g>
		<rect x="177.778" y="177.778" width="156.444" height="156.444"/>
	</g>
</g>
<g>
	<g>
		<path d="M512,177.778v-42.667h-49.778v-21.333c0-35.29-28.71-64-64-64h-21.333V0h-42.667v49.778h-56.889V0h-42.667v49.778h-56.889
			V0h-42.667v49.778h-21.333c-35.29,0-64,28.71-64,64v21.333H0v42.667h49.778v56.889H0v42.667h49.778v56.889H0v42.667h49.778v21.333
			c0,35.29,28.71,64,64,64h21.333V512h42.667v-49.778h56.889V512h42.667v-49.778h56.889V512h42.667v-49.778h21.333
			c35.29,0,64-28.71,64-64v-21.333H512v-42.667h-49.778v-56.889H512v-42.667h-49.778v-56.889H512z M376.889,376.889H135.111V135.111
			h241.778V376.889z"/>
	</g>
</g>
</svg>